<?xml version="1.0" encoding="UTF-8" standalone="no"?>
<!-- Generator: Adobe Illustrator 16.0.0, SVG Export Plug-In . SVG Version: 6.00 Build 0)  -->

<svg
   xmlns:dc="http://purl.org/dc/elements/1.1/"
   xmlns:cc="http://creativecommons.org/ns#"
   xmlns:rdf="http://www.w3.org/1999/02/22-rdf-syntax-ns#"
   xmlns:svg="http://www.w3.org/2000/svg"
   xmlns="http://www.w3.org/2000/svg"
   xmlns:sodipodi="http://sodipodi.sourceforge.net/DTD/sodipodi-0.dtd"
   xmlns:inkscape="http://www.inkscape.org/namespaces/inkscape"
   id="Layer_1"
   sodipodi:docname="bluetiemohawk.svg"
   xml:space="preserve"
   viewBox="0 0 592.49997 1150.3124"
   y="0px"
   version="1.1"
   enable-background="new 0 0 612 792"
   x="0px"
   inkscape:version="0.91 r13725"
   width="632"
   height="1227"><defs
     id="defs33281" /><sodipodi:namedview
     id="namedview97"
     bordercolor="#666666"
     inkscape:pageshadow="2"
     guidetolerance="10"
     pagecolor="#ffffff"
     gridtolerance="10"
     inkscape:window-maximized="1"
     inkscape:zoom="0.47584754"
     objecttolerance="10"
     borderopacity="1"
     inkscape:current-layer="Layer_1"
     inkscape:cx="440.57192"
     inkscape:cy="629.64383"
     inkscape:window-y="1"
     inkscape:window-x="4"
     inkscape:window-width="1916"
     showgrid="false"
     inkscape:pageopacity="0"
     inkscape:window-height="1035"
     fit-margin-top="0"
     fit-margin-left="0"
     fit-margin-right="0"
     fit-margin-bottom="0" /><g
     id="g19985"><g
       transform="translate(1.1841535,542.68519)"
       id="g19922"><path
         sodipodi:nodetypes="cccscc"
         style="fill:#b8d5c2;fill-opacity:1;fill-rule:evenodd;stroke:#000000;stroke-width:4.6875;stroke-linecap:round;stroke-linejoin:round;stroke-miterlimit:4;stroke-dasharray:none;stroke-opacity:1"
         d="M 174.00812,0.66520787 286.80808,-18.309445 c 45.25154,7.346825 90.78266,17.76908765 135.75462,22.0404753 0,0 20.00987,93.3793807 11.1166,95.6026997 -8.89328,2.22332 -253.5905,-6.477251 -253.5905,-6.477251 z"
         id="path19920"
         inkscape:connector-curvature="0" /><g
         id="g37213"
         transform="matrix(1.1555893,0,0,1.0702381,132.24292,-540.18794)"><g
           id="g37226"><path
             style="fill:#e3cba1;fill-opacity:1;fill-rule:evenodd;stroke:#000000;stroke-width:5.14232016;stroke-linecap:butt;stroke-linejoin:miter;stroke-miterlimit:4;stroke-dasharray:none;stroke-opacity:1"
             d="M 93.351045,473.08657 54.871662,612.27273 260.73639,620.58235 210.71318,460.62213 Z"
             id="path19918"
             inkscape:connector-curvature="0" /><ellipse
             style="fill:#e3cba1;stroke:#000000;stroke-width:5.14232016;stroke-miterlimit:10;stroke-dasharray:none"
             id="ellipse36622"
             ry="207.60001"
             rx="149.2"
             cy="317.31421"
             cx="150.7"
             class="st0" /><ellipse
             ry="36.215378"
             rx="67.681068"
             cy="147.85805"
             cx="152.29181"
             id="path37200"
             style="opacity:1;fill:#e4d4b8;fill-opacity:1;stroke:none;stroke-width:3;stroke-linecap:round;stroke-linejoin:round;stroke-miterlimit:4;stroke-dasharray:none;stroke-opacity:1" /><path
             style="fill:#ffffff;stroke:#000000;stroke-width:3;stroke-miterlimit:10"
             inkscape:connector-curvature="0"
             id="path36624"
             d="m 132.39999,295.01422 c 0,16.4 -17,29.7 -37.999996,29.7 -21,0 -38,-13.3 -38,-29.7 0,-16.4 17,-11 38,-11 20.999996,0 37.999996,-5.4 37.999996,11 z"
             class="st1" /><ellipse
             id="ellipse36626"
             ry="4.0999999"
             rx="2.8"
             cy="299.91422"
             cx="93.899994" /><path
             style="fill:#ffffff;stroke:#000000;stroke-width:3;stroke-miterlimit:10"
             inkscape:connector-curvature="0"
             id="path36628"
             d="m 255.89999,297.81422 c 0,16.4 -17,29.7 -38,29.7 -21,0 -38,-13.3 -38,-29.7 0,-16.4 17,-11 38,-11 21,0 38,-5.3 38,11 z"
             class="st1" /><ellipse
             id="ellipse36630"
             ry="4.0999999"
             rx="2.8"
             cy="302.7142"
             cx="226.29999" /><polygon
             transform="translate(-38.600006,82.814218)"
             id="polygon36632"
             points="206.2,319.1 225.2,295.9 215.2,200.4 229.4,298.8 " /><line
             style="fill:none;stroke:#000000;stroke-width:3;stroke-miterlimit:10"
             id="line36634"
             y2="435.51422"
             x2="190.79999"
             y1="435.51422"
             x1="154.89999"
             class="st2" /><line
             style="fill:#ffffff;stroke:#000000;stroke-width:3;stroke-miterlimit:10"
             id="line36636"
             y2="270.7142"
             x2="123.39999"
             y1="270.7142"
             x1="64.099991"
             class="st1" /><line
             style="fill:#ffffff;stroke:#000000;stroke-width:3;stroke-miterlimit:10"
             id="line36638"
             y2="270.7142"
             x2="247.5"
             y1="270.7142"
             x1="188.2"
             class="st1" /><path
             inkscape:connector-curvature="0"
             id="path37192"
             d="m 129.39999,152.81422 c -10.90386,-9.35884 -8.08862,-25.26685 -14.18407,-37.11745 -6.24007,-14.5197 -7.33966,-30.475333 -10.26142,-45.794152 -4.17108,-13.334601 -2.56196,-20.032906 -6.320836,-33.43191 0.0277,-7.836231 -5.867874,-28.2151851 1.07104,-30.8273748 6.938916,-2.6121897 5.081866,16.3245948 9.458076,23.3245808 4.04918,6.976726 10.18049,14.1478 18.00235,16.437343 4.50119,-5.937523 0.76065,-14.674726 3.33773,-21.573354 1.99897,-3.217855 2.70428,-14.7160218 8.05868,-7.811307 1.637,6.97542 1.49966,16.692501 10.19216,19.197465 7.79886,3.233187 12.77342,-5.466062 12.39249,-12.141099 2.55533,-7.139192 2.66521,-15.4788158 7.57386,-21.5487918 3.84996,-0.65875597 5.04032,8.6435668 9.61572,10.7622938 5.39013,5.031852 11.80362,11.923057 8.95167,19.952564 4.00572,-7.728156 4.1188,-16.737345 7.49307,-24.7150338 3.9738,-5.496491 18.3522,-7.74308797 11.69204,2.431893 -4.2514,4.0582538 -11.72825,14.6575308 -2.7409,17.6079428 7.43119,1.314908 12.84758,-4.278904 15.7562,-10.450208 1.5061,-4.727699 6.13614,-5.100311 5.50521,0.64842 5.22846,6.260273 4.18007,15.177628 -1.60939,21.085784 -5.88469,6.427639 -7.75168,14.737314 -8.89559,23.058885 -2.81129,11.372475 -7.6574,22.506331 -7.33629,34.427655 -5.10973,17.057274 -7.99289,35.041784 -15.9995,51.058104 -3.10121,7.87787 -10.64096,12.90236 -19.13934,11.76683 -11.91881,1.11237 -23.62207,-2.26065 -34.65721,-6.41673 -2.64843,-0.1974 -5.30916,-0.11635 -7.95575,0.0677 z"
             style="fill:#86509f;fill-opacity:1;stroke:#000000;stroke-width:5.14232016;stroke-linecap:round;stroke-linejoin:miter;stroke-miterlimit:4;stroke-dasharray:none;stroke-opacity:1"
             sodipodi:nodetypes="cccczcccccccccccccccccccccc" /></g></g><path
         sodipodi:nodetypes="ccccccccccccccccccccc"
         style="fill:#c3dfcd;fill-opacity:1;stroke:none;stroke-width:0.93749994px;stroke-linecap:butt;stroke-linejoin:miter;stroke-opacity:1"
         d="m 0,109.09858 -1.1841535,498.52863 593.2609135,0 0,-499.71279 -21.31477,-5.92076 L 509.18601,100.8095 466.4296,103.2 454.71495,77.126433 417.2396,6.33 399.05974,45.154288 371.8242,74.758126 339.85206,85.415508 319.72145,91.336275 258.14547,79.49474 204.85856,46.338441 170.77061,1.878 c -3.30826,16.82285 -10.42747,32.798821 -15.64649,49.197056 L 134.8596,87.88 78.154132,93.704583 7.1049211,107.91442 Z"
         id="path33826"
         inkscape:connector-curvature="0" /><path
         style="fill:#5e65b5;fill-opacity:1;stroke:none;stroke-width:0.93749994px;stroke-linecap:butt;stroke-linejoin:miter;stroke-opacity:1"
         d="m 197.2696,507.01 35.13975,40.94076 20.27733,44.45414 3.16692,9.72311 43.62691,-44.81847 47.57373,-36.65517 5.45927,-11.69846 4.67938,-77.98971 -3.89948,-79.54951 -12.47836,-123.22375 -4.67938,-80.32941 3.87472,-18.10553 -1.53503,-12.31046 L 319.72145,91.336276 285.44236,89.371243 271.9716,85.821 254.11258,93.177013 249.79129,157.27577 226.8726,281.744 209.79233,409.12908 Z"
         id="path33828"
         inkscape:connector-curvature="0"
         sodipodi:nodetypes="ccccccccccccccccccccc" /><path
         style="fill:#ba9c57;fill-opacity:1;stroke:none;stroke-width:0.93749994px;stroke-linecap:butt;stroke-linejoin:miter;stroke-opacity:1"
         d="m 237.71961,232.37 -15.44893,74.59255 -3.26708,20.74145 94.51505,66.60703 43.67424,36.65517 -8.57886,-117.76447 -49.13352,-38.21496 z"
         id="path33832"
         inkscape:connector-curvature="0" /><g
         id="g3"
         transform="translate(2.5596,-126.86)"><g
           id="g5"><g
             id="g7"><path
               id="path9"
               inkscape:connector-curvature="0"
               d="m 170.75,130.67 c 15.957,33.842 43.128,61.875 77.425,77.204 30.987,13.85 66.878,16.254 98.778,4.012 36.118,-13.861 61.1,-44.939 74.832,-80.255 1.17,-3.009 -3.667,-4.3 -4.822,-1.329 -14.182,36.475 -40.939,67.488 -79.049,79.449 -33.554,10.531 -70.305,4.219 -100.51,-12.921 -27.492,-15.6 -48.917,-40.228 -62.334,-68.682 -1.39,-2.91 -5.7,-0.37 -4.33,2.53 z" /></g></g><g
           id="g11"><g
             id="g13"><path
               id="path15"
               inkscape:connector-curvature="0"
               d="m 269.42,212.68 c -18.084,-3.806 -23.212,18.134 -23.273,31.73 -0.042,9.258 2.239,18.749 7.102,26.668 4.925,8.022 13.42,11.919 22.366,13.535 9.38,1.694 19.165,2.045 28.673,2.356 9.36,0.306 21.393,-1.33 27.101,-9.859 6.506,-9.72 10.064,-20.646 7.029,-32.237 -2.487,-9.499 -9.463,-17.356 -16.444,-23.912 -2.244,-2.107 -4.597,-4.098 -6.95,-6.08 -2.449,-2.063 -6.005,1.456 -3.535,3.535 13.55,11.414 27.482,25.476 21.543,44.698 -3.588,11.609 -11.538,18.021 -23.483,18.803 -8.396,0.55 -17.311,-0.364 -25.667,-1.232 -7.72,-0.802 -15.711,-1.945 -21.893,-7.047 -6.739,-5.562 -9.648,-15.295 -10.559,-23.7 -1.116,-10.292 0.649,-35.807 16.662,-32.437 3.13,0.66 4.47,-4.16 1.32,-4.82 z" /></g></g><g
           id="g17"><g
             id="g19"><path
               id="path21"
               inkscape:connector-curvature="0"
               d="m 168.21,128.74 c -6.364,25.293 -19.528,48.046 -31.033,71.228 -3.091,6.228 -7.575,13.012 -6.286,20.295 1.835,10.366 7.41,20.683 12.864,29.53 6.489,10.525 12.917,20.779 18.092,32.049 5.494,11.962 9.729,24.481 13.689,37.019 7.799,24.698 14.296,49.811 24.876,73.531 0.73,1.638 3.586,1.636 4.317,0 12.958,-28.997 17.722,-60.945 23.911,-91.863 6.227,-31.108 13.067,-64.208 32,-90.411 1.893,-2.619 -2.448,-5.11 -4.317,-2.523 -18.308,25.337 -25.432,57.104 -31.61,87.191 -6.542,31.856 -10.928,65.155 -24.301,95.082 l 4.317,0 c -10.392,-23.298 -16.772,-48.056 -24.372,-72.337 -7.292,-23.297 -16.383,-45.453 -29.607,-66.039 -6.031,-9.389 -11.273,-19.132 -14.446,-29.888 -2.429,-8.234 3.979,-16.823 7.53,-23.812 11.12,-21.883 23.167,-43.757 29.197,-67.724 0.79,-3.13 -4.03,-4.45 -4.82,-1.33 z" /></g></g><g
           id="g23"><g
             id="g25"><path
               id="path27"
               inkscape:connector-curvature="0"
               d="m 414.68,133.19 c 5.012,12.769 10.44,25.361 16.35,37.741 5.381,11.271 10.843,22.955 17.967,33.245 4.233,6.115 15.626,18.541 9.368,25.976 -5.423,6.442 -13.03,10.97 -19.645,16.06 -7.586,5.838 -13.87,14.324 -19.642,21.88 -7.665,10.032 -14.546,20.6 -20.766,31.583 -12.962,22.886 -22.97,47.832 -28.134,73.66 l 4.822,0 c -10.832,-26.274 -13.603,-55.527 -18.813,-83.246 -4.719,-25.108 -10.132,-54.572 -28.613,-73.647 -2.247,-2.319 -5.779,1.22 -3.535,3.535 18.126,18.709 22.964,48.224 27.582,72.796 5.129,27.29 7.894,56.023 18.557,81.891 0.84,2.037 4.281,2.704 4.822,0 5.321,-26.617 15.827,-51.937 29.313,-75.419 11.07,-19.276 24.537,-39.605 42.618,-52.942 6.069,-4.478 13.295,-9.184 17.286,-15.753 4.536,-7.465 -3.788,-18.616 -7.763,-24.408 -15.61,-22.745 -26.901,-48.669 -36.953,-74.28 -1.17,-2.98 -6.01,-1.69 -4.83,1.32 z" /></g></g><g
           id="g29"><g
             id="g31"><path
               id="path33"
               inkscape:connector-curvature="0"
               d="m 244.79,240.96 c 3.224,0 3.224,-5 0,-5 -3.224,0 -3.22,5 0,5 z" /></g></g><g
           id="g35"><g
             id="g37"><path
               id="path39"
               inkscape:connector-curvature="0"
               d="m 245.72,236.9 c 0.041,30.97 2.342,62.531 -5.616,92.809 -4.028,15.326 -7.115,30.999 -10.599,46.46 -3.531,15.672 -6.85,31.392 -9.678,47.207 -11.281,63.088 -14.952,127.18 -22.259,190.77 -0.647,5.637 -1.337,11.269 -2.054,16.897 -0.407,3.192 4.598,3.153 5,0 8.18,-64.22 12.012,-128.87 21.888,-192.89 4.89,-31.696 12.439,-62.905 19.588,-94.145 3.33,-14.549 6.759,-28.853 8.053,-43.76 1.332,-15.344 1.019,-30.799 0.82,-46.18 -0.074,-5.725 -0.137,-11.45 -0.144,-17.175 -0.01,-3.22 -3.7548,-9.49599 -3.7448,-6.27599 z"
               sodipodi:nodetypes="cccccccccccccc" /></g></g><g
           id="g41"><g
             id="g43"><path
               id="path45"
               inkscape:connector-curvature="0"
               d="m 332.43,258.71 c 0.152,127.04 30.974,254.05 13.781,381.02 -0.426,3.151 4.391,4.513 4.822,1.33 17.175,-126.85 -13.146,-253.54 -13.602,-380.44 0,-0.639 -10e-4,-1.278 -0.002,-1.917 0,-3.21 -5,-3.21 -5,0.01 z" /></g></g><g
           id="g47"><g
             id="g49"><path
               id="path51"
               inkscape:connector-curvature="0"
               d="m 194.71,633.87 c 8.877,15.784 22.512,27.771 32.716,42.573 5.264,7.637 8.827,16.631 12.621,25.062 4.442,9.867 8.582,19.87 12.604,29.915 0.613,1.53 2.873,2.739 4.178,1.103 14.547,-18.245 28.701,-35.806 46.736,-50.759 15.918,-13.198 34.068,-22.659 46.08,-40.104 1.833,-2.663 -2.502,-5.16 -4.318,-2.523 -11.912,17.301 -30.578,26.887 -46.391,39.998 -17.629,14.617 -31.428,32.024 -45.642,49.853 1.393,0.367 2.786,0.735 4.178,1.103 -3.727,-9.304 -7.575,-18.558 -11.607,-27.733 -3.996,-9.094 -7.86,-18.689 -13.217,-27.074 -9.983,-15.626 -24.473,-27.67 -33.621,-43.936 -1.58,-2.81 -5.9,-0.29 -4.32,2.52 z" /></g></g><g
           id="g53"><g
             id="g55"><path
               id="path57"
               inkscape:connector-curvature="0"
               d="m 463.87,230.06 c 40.16,2.884 80.779,-4.077 120.28,6.142 3.125,0.808 4.449,-4.015 1.33,-4.821 -39.974,-10.339 -80.988,-3.403 -121.62,-6.321 -3.21,-0.24 -3.18,4.77 0.01,5 z" /></g></g></g><g
         id="g59"
         transform="translate(2.5596,-126.86)"><g
           id="g61"><path
             id="path63"
             inkscape:connector-curvature="0"
             d="m 132.3,214.74 c -45.377,0.07 -89.541,6.27 -133.1,19.01 -3.088,0.903 -1.773,5.729 1.329,4.821 43.144,-12.618 86.825,-18.764 131.77,-18.83 3.22,0 3.22,-5 0,-5 z" /></g></g><g
         id="g65"
         transform="translate(2.5596,-126.86)"><g
           id="g67"><path
             id="path69"
             inkscape:connector-curvature="0"
             d="m 421.87,433.46 0,-32.429 -2.5,2.5 116.98,0 -2.5,-2.5 0,143.24 2.5,-2.5 -116.98,0 2.5,2.5 0,-67.578 c 0,-7.543 0.009,-14.963 -0.646,-22.472 -0.299,-3.432 -0.533,-6.867 -0.583,-10.313 -0.028,-1.928 -0.469,-6.121 1.324,-7.428 4.575,-3.332 13.636,-1.889 18.887,-1.632 7.289,0.356 14.363,0.478 21.672,0.231 22.804,-0.768 45.6,-1.794 68.421,-1.823 3.224,-0.004 3.225,-5.004 0,-5 -24.124,0.031 -48.224,1.16 -72.33,1.954 -7.61,0.25 -15.083,-0.35 -22.684,-0.551 -5.194,-0.138 -13.419,-0.634 -17.559,3.305 -3.565,3.391 -2.818,9.915 -2.635,14.34 0.299,7.186 1.132,14.233 1.132,21.438 l 0,75.528 c 0,1.362 1.137,2.5 2.5,2.5 l 116.98,0 c 1.363,0 2.5,-1.138 2.5,-2.5 l 0,-143.24 c 0,-1.363 -1.137,-2.5 -2.5,-2.5 l -116.98,0 c -1.363,0 -2.5,1.137 -2.5,2.5 l 0,32.429 c 0,3.22 5,3.22 5,0 z" /></g></g><g
         id="g77"
         transform="translate(2.5596,-126.86)"><g
           id="g79"><path
             id="path81"
             inkscape:connector-curvature="0"
             d="m 235.16,359.23 c 36.729,28.314 73.459,56.627 110.19,84.942 0.291,0.225 0.583,0.449 0.874,0.674 2.554,1.968 5.039,-2.379 2.523,-4.318 l -110.19,-84.941 c -0.291,-0.225 -0.583,-0.449 -0.874,-0.674 -2.55,-1.97 -5.03,2.38 -2.52,4.32 z" /></g></g><g
         id="g83"
         transform="translate(2.5596,-126.86)"><g
           id="g85"><path
             id="path87"
             inkscape:connector-curvature="0"
             d="m 224.31,408.6 c 39.555,28.808 79.11,57.615 118.67,86.423 l 7.566,5.511 c 2.611,1.901 5.102,-2.44 2.523,-4.318 -39.555,-28.807 -79.11,-57.614 -118.67,-86.422 -2.522,-1.837 -5.044,-3.674 -7.566,-5.51 -2.61,-1.9 -5.1,2.44 -2.52,4.32 z" /></g></g><g
         id="g89"
         transform="translate(2.5596,-126.86)"><g
           id="g91"><path
             id="path93"
             inkscape:connector-curvature="0"
             d="m 216.44,454.56 c 40.088,29.446 80.177,58.893 120.27,88.339 l 15.84,11.634 c 2.603,1.912 5.093,-2.43 2.523,-4.316 -40.089,-29.446 -80.177,-58.893 -120.27,-88.339 -5.28,-3.878 -10.56,-7.756 -15.839,-11.634 -2.6,-1.9 -5.09,2.44 -2.52,4.32 z" /></g></g></g></g><metadata
     id="metadata95"><rdf:RDF><cc:Work><dc:format>image/svg+xml</dc:format><dc:type
           rdf:resource="http://purl.org/dc/dcmitype/StillImage" /><cc:license
           rdf:resource="http://creativecommons.org/publicdomain/zero/1.0/" /><dc:publisher><cc:Agent
             rdf:about="http://openclipart.org/"><dc:title>Openclipart</dc:title></cc:Agent></dc:publisher><dc:title></dc:title><dc:creator><cc:Agent><dc:title>j4p4n</dc:title></cc:Agent></dc:creator></cc:Work><cc:License
         rdf:about="http://creativecommons.org/publicdomain/zero/1.0/"><cc:permits
           rdf:resource="http://creativecommons.org/ns#Reproduction" /><cc:permits
           rdf:resource="http://creativecommons.org/ns#Distribution" /><cc:permits
           rdf:resource="http://creativecommons.org/ns#DerivativeWorks" /></cc:License></rdf:RDF></metadata><style
     id="style36620"
     type="text/css">
	.st0{fill:#E3CBA1;stroke:#000000;stroke-width:3;stroke-miterlimit:10;}
	.st1{fill:#FFFFFF;stroke:#000000;stroke-width:3;stroke-miterlimit:10;}
	.st2{fill:none;stroke:#000000;stroke-width:3;stroke-miterlimit:10;}
</style></svg>